<?xml version="1.0" encoding="UTF-8"?><svg id="a" xmlns="http://www.w3.org/2000/svg" viewBox="0 0 500.61 500.61"><defs><style>.b{fill:#fff;}</style></defs><path class="b" d="M352.39,317.23c-8.89,.06-13.76,6.99-13.97,14.02,.41,7.79,5.88,13.75,13.99,13.79,7.69,.04,13.98-5.34,13.96-13.93-.02-8.59-6.28-13.94-13.97-13.89Z"/><path class="b" d="M180.77,317.24c-8.27,.05-13.99,5.8-13.92,14,.08,8.72,6.34,13.81,13.89,13.8,7.59,0,13.43-5.15,14.04-13.79-.27-7.73-5.64-14.06-14.01-14.01Z"/><path class="b" d="M250.31,0C112.07,0,0,112.07,0,250.31s112.07,250.31,250.31,250.31,250.31-112.07,250.31-250.31S388.55,0,250.31,0ZM86.22,193.26c.14-4.36,4.54-7.92,7.86-7.72,1.46,.09,2.94,0,4.41,0,17.79,0,35.58,0,53.37,0,18.33,0,36.66,0,54.99,0,.7,0,1.39,.03,2.09,0,4.48-.23,8.13,3.12,8.47,7.24,.22,2.67,.22,5.42-.21,8.05-.62,3.76-3.73,6.16-7.56,6.31-3.78,.14-7.57,.28-11.35,.28-32.87,.02-65.74,.02-98.61,0-2.16,0-4.33-.12-6.48-.33-3.61-.35-6.76-3.76-6.96-7.56-.11-2.08-.08-4.18-.01-6.26Zm-16.35,66.39c-3.15-1.48-4.92-3.9-5.02-7.43-.05-1.85-.06-3.71,0-5.57,.13-4.41,3.53-7.85,7.97-8.09,.93-.05,1.86-.04,2.78-.04,16.86,0,33.72,0,50.58,0,16.94,0,33.87,0,50.81,0,2.02,0,4.01,.04,5.81,1.18,2.61,1.64,4.1,3.93,4.22,7.03,.07,1.7-.05,3.41,.03,5.1,.19,3.92-2.96,8.44-8.49,8.61-.54,.02-1.08,0-1.62,0-34.03,0-68.06,0-102.09,0-1.71,0-3.4-.05-4.99-.8Zm110.85,104.1c-19.2-.05-32.74-15.29-32.72-32.71,.02-17.8,14.67-32.66,32.9-32.59,18.08,.08,32.73,15.03,32.59,32.65,0,17.46-13.69,32.69-32.78,32.64Zm171.82,0c-18.68,.06-32.78-14.65-32.81-32.6-.03-18.72,15.36-32.72,32.77-32.7,17.99,.07,32.75,14.63,32.71,32.78-.04,17.34-13.65,32.46-32.67,32.52Zm79.96-38.72c-3.75,5.28-8.87,8.09-15.32,8.23-6.65,.14-13.31,.06-19.96,.04-2.07,0-2.32-.31-2.4-2.47-.3-8.37-2.56-16.16-7.25-23.13-3.36-5-7.64-9.08-12.76-12.3-5.13-3.22-10.71-5.28-16.66-6.02-9.88-1.23-19.19,.61-27.76,5.88-8.49,5.22-14.34,12.59-17.79,21.88-1.32,3.56-2.07,7.27-2.18,11.1-.03,1.08-.2,2.15-.27,3.23-.09,1.26-.9,1.72-2.01,1.82-.54,.05-1.08,.03-1.62,.03-26.69,0-53.38,0-80.07,0-.31,0-.62,0-.93,0-2.06-.08-2.36-.37-2.43-2.48-.25-6.65-1.62-13.04-4.78-18.93-5.8-10.82-14.54-18.02-26.44-21.39-3.69-1.05-7.46-1.59-11.2-1.54-8.09,.11-15.72,2.19-22.59,6.65-10.73,6.97-16.97,16.87-19.18,29.38-.33,1.89-.23,3.86-.48,5.77-.23,1.79-.77,2.44-2.48,2.45-4.78,.04-9.59,.51-14.35-.35-7.68-1.39-14.02-8.03-14.99-15.73-.22-1.76-.34-3.54-.35-5.31-.03-12.22-.02-24.45,0-36.67,0-3.8,1.55-5.71,5.22-6.55,.82-.19,1.67-.27,2.52-.33,.77-.06,1.55-.02,2.32-.02,20.65,0,41.31-.02,61.96,.01,5.03,0,9.2-1.81,12.55-5.49,2.46-2.71,3.88-5.94,4.04-9.63,.08-1.85-.03-3.72,.05-5.57,.45-9.59-7.45-17-16.94-16.95-21.2,.12-42.39,.04-63.59,.02-1.3,0-2.63-.13-3.89-.42-3.02-.69-4.12-2.09-4.23-5.2-.05-1.39-.04-2.79,0-4.18,.09-4.06,1.63-5.58,5.68-5.58,17.48,0,34.97,0,52.45,0,14.62,0,29.24-.02,43.86,0,5.25,0,9.62-1.87,13.18-5.73,2.18-2.37,3.5-5.21,3.83-8.29,.35-3.28,.51-6.7-.03-9.94-1.4-8.46-8.23-13.9-16.87-13.9-31.64,0-63.28,0-94.92,0-.85,0-1.7,.03-2.55-.03-2.2-.16-3.79-1.45-4.28-3.58-.22-.97-.34-1.98-.35-2.98-.04-4.56,.02-9.13-.02-13.69-.09-9.23,4.45-14.8,12.35-17.95,4.23-1.69,8.66-2.27,13.16-2.29,11.14-.06,22.28-.02,33.42-.02,18.1,0,36.2,0,54.31,0,29.32,0,58.64,0,87.96,0,3.62,0,7.1,.57,10.22,2.5,5.32,3.27,7.83,8.26,8.13,14.31,.25,4.94,.08,9.9,.09,14.85,0,4.25-.01,8.51,0,12.76,.01,2.84,.88,3.74,3.75,3.75,6.5,.03,13,.08,19.49-.01,4.34-.06,8.47,.78,12.38,2.56,6.55,2.98,12.1,7.22,15.63,13.63,2.08,3.79,3.86,7.75,5.78,11.62,3.43,6.93,6.8,13.89,10.33,20.76,2.47,4.81,6.39,8.2,11.48,9.93,5.18,1.76,10.5,3.13,15.77,4.66,.67,.19,1.34,.36,2.01,.54,5.25,1.48,8.62,4.95,10.5,9.97,1.48,3.94,2.2,8.06,2.35,12.24,.25,7.1,.35,14.22,.41,21.33,.07,7.27,.06,14.54,0,21.82-.03,3.93-.94,7.65-3.27,10.93Z"/><path class="b" d="M367.67,213.4c-4.63-8.84-12.31-13.82-22.08-14.98-5.64-.67-11.42-.22-17.14-.17-2.09,.02-2.57,.61-2.57,2.69-.01,13.68-.01,27.36,0,41.03,0,2.84,.71,3.53,3.59,3.53,16.77,0,33.54,0,50.31,0,.46,0,.95,.05,1.38-.06,.71-.19,1.38-.5,2.37-.88-.99-1.67-1.81-2.88-2.46-4.18-4.47-8.99-8.75-18.09-13.4-26.98Z"/></svg>