<?xml version="1.0" encoding="UTF-8"?><svg id="a" xmlns="http://www.w3.org/2000/svg" viewBox="0 0 500.61 500.61"><defs><style>.b{fill:#fff;}</style></defs><path class="b" d="M353.54,165.62c0-3.03,0-6.07,0-9.81-2.45-.43-3.78-.72-5.13-.88-32.36-4.01-63.3-12.77-92.16-28.16-4.5-2.4-8.09-2.08-12.45,.12-24.54,12.39-50.4,20.79-77.56,25.17-6.25,1.01-12.48,2.13-19.37,3.31,0,3.6,0,6.63,0,9.65,0,34.86,.56,69.73-.23,104.58-.46,20.22,6.47,36.99,18.87,52.15,20.36,24.88,45.98,42.74,74.88,56.3,6.88,3.23,13.26,3.39,19.94-.22,4.89-2.65,10.08-4.77,14.97-7.42,23.79-12.89,44.83-29.14,61.42-50.77,11.19-14.59,17.45-30.51,17.06-49.45-.71-34.85-.21-69.72-.22-104.58Zm-24.64,46.54c-23.21,27.01-46.46,53.99-69.7,80.98-6.12,7.1-12.15,14.28-18.4,21.26-4.64,5.18-6.33,5.32-11.51,.48-19.61-18.37-39.06-36.91-58.64-55.3-4.08-3.83-4.02-7.23-.13-11.12,5.3-5.3,10.29-10.91,15.56-16.24,5.06-5.11,6.33-5.19,11.57-.35,8.72,8.05,17.25,16.32,25.91,24.43,2.67,2.5,5.52,4.82,10.46,9.11,2.04-3.23,3.4-6.11,5.4-8.45,19.47-22.81,39.03-45.54,58.59-68.28,7.58-8.82,8.03-8.84,17.06-1.13,4.28,3.65,8.59,7.27,12.77,11.02,6.77,6.07,6.85,6.85,1.06,13.59Z"/><path class="b" d="M250.21,.09C112.02,.09,0,112.11,0,250.3s112.02,250.21,250.21,250.21,250.21-112.02,250.21-250.21S388.39,.09,250.21,.09Zm119.25,344.44c-27.24,34.01-61.52,58.74-101.62,75.6-11.05,4.65-21.97,5.46-33.25,.77-43.76-18.18-80.93-44.97-108.88-83.65-13.62-18.85-20.15-39.94-19.96-63.44,.39-48.26,.08-96.54,.11-144.8,0-3.61,.4-7.22,.62-10.89,13.17-1.34,25.46-2.3,37.67-3.9,35.73-4.68,69-16.51,99.75-35.29,4-2.44,7.05-3.56,11.69-.67,40.87,25.45,85.64,37.83,133.62,39.09,1.21,.03,2.4,.33,4.59,.65,.26,3.28,.74,6.53,.74,9.79,.05,49.51-.13,99.01,.11,148.52,.13,26.02-9.33,48.38-25.21,68.21Z"/></svg>