<?xml version="1.0" encoding="UTF-8"?><svg id="a" xmlns="http://www.w3.org/2000/svg" viewBox="0 0 500.61 500.61"><defs><style>.b{fill:#fff;}</style></defs><path class="b" d="M250.87,194.18c-30.48-.11-56.85,26.1-56.65,56.84,.19,28.72,26.09,55.51,55.87,55.39,30.46-.12,57.36-25.83,56.07-56.56,1.4-29.4-26.21-55.57-55.29-55.68Z"/><path class="b" d="M250.31,0C112.07,0,0,112.07,0,250.31s112.07,250.31,250.31,250.31,250.31-112.07,250.31-250.31S388.55,0,250.31,0Zm170.05,274.81c-.07,4.34-2.72,8.48-8.48,9.18-8.68,1.06-17.3,2.6-25.96,3.89-3.25,.48-6.56,.62-9.75,1.34-1.37,.31-3.08,1.43-3.64,2.64-2.67,5.79-5.01,11.73-7.69,18.15,6.71,8.55,13.58,17.31,20.45,26.07,1.02,1.29,2.1,2.54,3.03,3.9,2.58,3.75,2.67,6.87,0,10.59-2.01,2.82-4.13,5.63-6.57,8.06-9.46,9.4-18.92,18.82-28.71,27.86-4.5,4.16-8.68,5.9-16.06-.1-8.93-7.26-18.15-14.16-27.59-21.48-6.4,2.69-12.92,5.44-19.74,8.31-.56,4.21-1.03,8.53-1.71,12.81-1.37,8.64-2.67,17.3-4.34,25.89-1.2,6.17-3,7.61-9.11,8.36-2.17,.27-4.38,.19-6.58,.19-12.44,.02-24.88,.04-37.32-.02-2.17-.01-4.37-.27-6.52-.67-4.11-.75-6.25-3.37-6.85-7.48-1.91-12.99-3.89-25.97-5.88-39.17-6.64-2.71-12.88-5.25-19.68-8.03-6.27,4.74-12.96,9.78-19.63,14.83-3.5,2.65-6.93,5.39-10.48,7.97-4.4,3.2-8.16,3.12-12.47-.35-2.42-1.94-4.65-4.13-6.85-6.32-8.04-7.98-16.18-15.87-24-24.06-9.16-9.6-8.49-13.39-1.07-22.6,5.5-6.83,10.81-13.83,16.18-20.77,.89-1.15,1.64-2.39,2.57-3.76-1.5-3.35-3.06-6.63-4.45-9.97-1.4-3.37-2.62-6.8-4.26-11.11-3.69-.65-7.9-1.5-12.15-2.12-8.48-1.25-16.99-2.31-25.46-3.6-6.79-1.03-9.34-4.22-9.4-11.84-.1-11.89-.03-23.79-.03-35.68,0-3.11-.14-6.23,.07-9.33,.41-5.99,2.57-8.6,8.45-9.62,8.8-1.53,17.66-2.72,26.49-4.09,4.12-.64,8.22-1.35,11.92-1.97,2.99-6.91,5.74-13.26,8.77-20.27-6.26-8.03-12.75-16.37-19.26-24.7-1.35-1.73-2.78-3.39-4.11-5.14-2.57-3.39-2.85-6.57-.46-10.08,2.15-3.16,4.43-6.33,7.13-9.02,8.93-8.91,18.06-17.61,27.15-26.35,1.04-1,2.3-1.8,3.52-2.6,4.57-2.98,7.65-2.97,12.04,.38,7.13,5.42,14.16,10.98,21.24,16.47,2.73,2.12,5.47,4.21,8.14,6.26,6.69-2.81,13.07-5.48,19.82-8.31,.55-4.32,1-8.82,1.7-13.29,1.34-8.46,2.64-16.94,4.31-25.34,1.28-6.46,3.7-8.48,10.12-8.55,15-.15,30.01-.07,45.01-.02,1.62,0,3.27,.36,4.86,.74,3.83,.91,5.81,3.46,6.38,7.31,1.9,12.99,3.86,25.97,5.83,39.18,6.49,2.67,13.03,5.37,19.75,8.13,9.37-7.06,18.87-14.19,28.34-21.37,6.95-5.27,10.55-5.15,16.69,.9,8.6,8.47,17.18,16.97,25.67,25.55,2.44,2.46,4.65,5.16,6.77,7.91,3.72,4.8,3.57,8.84-.37,13.93-6.6,8.53-13.23,17.03-19.84,25.55-.55,.71-1.02,1.48-1.53,2.22,2.87,6.88,5.67,13.6,8.86,21.27,3.93,.69,8.52,1.57,13.14,2.28,8.11,1.25,16.26,2.31,24.36,3.59,6.1,.96,8.08,3.08,9.08,9.17,.06,.36,.19,.72,.19,1.08,.02,15.73,.2,31.47-.05,47.2Z"/></svg>